<?xml version="1.0" standalone="no"?>
<!DOCTYPE svg PUBLIC "-//W3C//DTD SVG 1.1//EN" "http://www.w3.org/Graphics/SVG/1.1/DTD/svg11.dtd" >
<svg xmlns="http://www.w3.org/2000/svg">
<metadata>
Created by FontForge 20120731 at Thu Jun  8 10:34:11 2017
 By admin
</metadata>
<defs>
<font id="iconfont" horiz-adv-x="1024" >
  <font-face 
    font-family="iconfont"
    font-weight="500"
    font-stretch="normal"
    units-per-em="1024"
    panose-1="2 0 6 3 0 0 0 0 0 0"
    ascent="896"
    descent="-128"
    x-height="792"
    bbox="-0.5 -217.125 1024.5 896.5"
    underline-thickness="0"
    underline-position="0"
    unicode-range="U+0078-EA16"
  />
<missing-glyph 
 />
    <glyph glyph-name=".notdef" 
 />
    <glyph glyph-name=".notdef" 
 />
    <glyph glyph-name=".null" horiz-adv-x="0" 
 />
    <glyph glyph-name="nonmarkingreturn" horiz-adv-x="341" 
 />
    <glyph glyph-name="x" unicode="x" horiz-adv-x="1001" 
d="M281 543q-27 -1 -53 -1h-83q-18 0 -36.5 -6t-32.5 -18.5t-23 -32t-9 -45.5v-76h912v41q0 16 -0.5 30t-0.5 18q0 13 -5 29t-17 29.5t-31.5 22.5t-49.5 9h-133v-97h-438v97zM955 310v-52q0 -23 0.5 -52t0.5 -58t-10.5 -47.5t-26 -30t-33 -16t-31.5 -4.5q-14 -1 -29.5 -0.5
t-29.5 0.5h-32l-45 128h-439l-44 -128h-29h-34q-20 0 -45 1q-25 0 -41 9.5t-25.5 23t-13.5 29.5t-4 30v167h911zM163 247q-12 0 -21 -8.5t-9 -21.5t9 -21.5t21 -8.5q13 0 22 8.5t9 21.5t-9 21.5t-22 8.5zM316 123q-8 -26 -14 -48q-5 -19 -10.5 -37t-7.5 -25t-3 -15t1 -14.5
t9.5 -10.5t21.5 -4h37h67h81h80h64h36q23 0 34 12t2 38q-5 13 -9.5 30.5t-9.5 34.5q-5 19 -11 39h-368zM336 498v228q0 11 2.5 23t10 21.5t20.5 15.5t34 6h188q31 0 51.5 -14.5t20.5 -52.5v-227h-327z" />
    <glyph glyph-name="shanchu1" unicode="&#xe605;" 
d="M928 627q0 37 -33 74t-78 37h-128q-11 34 -40.5 55.5t-65.5 21.5h-142q-36 0 -65 -21.5t-41 -55.5h-128q-46 0 -78.5 -32.5t-32.5 -78.5v-13h18v-13h66v-536q0 -47 33 -79.5t79 -32.5h441q46 0 78.5 32.5t32.5 79.5v536h67v13h17v13zM441 779h142q22 0 40 -11t27 -30
h-276q9 19 27.5 30t39.5 11zM207 702h610q25 0 47 -21t27 -44h-758q3 28 24.5 46.5t49.5 18.5zM808 65q0 -32 -22 -54t-53 -22h-441q-32 0 -54 22t-22 54v536h592v-536zM328 479h36v-368h-36v368zM494 479h36v-368h-36v368zM660 479h36v-368h-36v368z" />
    <glyph glyph-name="shoucang" unicode="&#xe600;" 
d="M896 294q66 69 66 166.5t-66 166.5q-68 71 -164 69q-37 -1 -91.5 -29.5t-90.5 -57.5l-37 -28q-6 4 -15.5 12t-38.5 28t-55.5 35t-59 27.5t-56.5 12.5q-93 0 -159 -69t-66 -166.5t66 -166.5l383 -399z" />
    <glyph glyph-name="qq" unicode="&#xe601;" 
d="M981 118q-6 34 -20 68t-27.5 56.5t-30 42.5t-22.5 26.5t-10 9.5v0q3 33 1 56.5t-7.5 38t-11.5 23t-11 10.5l-5 3q-2 71 -20.5 127.5t-44 91t-60.5 59.5t-64 36.5t-60.5 17.5t-43.5 6.5t-19 0.5q-8 0 -19.5 -0.5t-43 -6.5t-60.5 -17.5t-64 -36.5t-61 -59.5t-44.5 -91
t-20.5 -127.5q-2 0 -4.5 -2.5t-10.5 -11.5t-12 -22.5t-8 -38t1 -56.5l-9 -9t-22.5 -26.5t-30.5 -43t-27.5 -56.5t-19.5 -68q-1 -4 -1 -11.5t1 -25.5t4 -31t10 -23.5t17.5 -9t28.5 19.5t41 55q26 -69 72 -131q-4 -1 -9.5 -3.5t-19.5 -11t-24 -19.5t-17.5 -29t-5.5 -38
q0 -4 1 -9.5t10 -19t25.5 -24t53.5 -18t87 -6.5q5 1 14 2t33 5.5t44 11t41.5 18.5t32.5 27h17v0h17q16 -24 57.5 -40t74.5 -20l32 -4q51 -1 87.5 6t53 18.5t26 23.5t10.5 20l1 9q2 20 -5.5 38t-19 29t-23 19.5t-20.5 11.5l-8 3q20 28 38 60.5t26 51.5l7 19q23 -37 41 -55.5
t28.5 -18.5t18 8.5t10 24t4 30.5t0.5 26v11z" />
    <glyph glyph-name="weixin" unicode="&#xe604;" 
d="M669 495q14 0 30 -2q-20 95 -110.5 157.5t-206.5 62.5q-130 0 -222 -77.5t-92 -189.5q0 -124 126 -212l-31 -94l109 55q80 -16 110 -16q14 0 30 1q-10 33 -10 66q0 103 77.5 176t189.5 73zM500 580q18 0 28.5 -11t10.5 -28.5t-10.5 -28.5t-28.5 -11t-32.5 11.5
t-14.5 28.5t14.5 28t32.5 11zM280 501q-18 0 -32.5 11.5t-14.5 28.5t14.5 28t32.5 11t29 -11t11 -28.5t-11 -28.5t-29 -11zM956 250q0 93 -80 160.5t-187 67.5q-112 0 -189.5 -67t-77.5 -161.5t77.5 -161t189.5 -66.5q31 0 94 16l86 -47l-23 78q110 83 110 181zM602 289
q-11 0 -21 10t-10 21.5t10 21.5t21 10q17 0 28.5 -9.5t11.5 -22t-11.5 -22t-28.5 -9.5zM775 289q-12 0 -21.5 10t-9.5 21.5t9.5 21.5t21.5 10q17 0 28 -9.5t11 -22t-11 -22t-28 -9.5z" />
    <glyph glyph-name="huaban" unicode="&#xe63c;" 
d="M312 86q-2 2 -11 10.5t-14 13.5q1 -10 7 -16.5t12 -6.5zM312 405q17 53 45.5 96t55.5 67.5t53.5 41.5t40.5 23t16 6q-85 27 -194 34q-87 6 -205 -13v0q-1 -13 -2 -36t4 -91t18.5 -131t48.5 -143.5t88 -141.5q2 -3 6 -7v0q0 5 -1 29.5t-1 38v40t1.5 46.5t4.5 45.5t8 49.5
t13 46zM899 124q-3 40 -12 85.5t-15 71.5l-7 26q-2 -6 -6.5 -15t-21.5 -35.5t-38.5 -50t-60 -51t-82.5 -45.5q-136 -54 -319 -49q192 -163 549 -163l2.5 15t5 37.5t5 53t3 60.5t-2.5 60zM312 86q0 -3 0.5 -7t6.5 -11t17 -7h1l-2 2l-1.5 1.5zM308 94q12 -1 32 -3t78.5 -0.5
t112 11.5t119 39.5t113 77t77.5 110t39.5 118.5t12 105.5t-1.5 78.5l-4 29q-12 2 -33 3.5t-81 0t-114 -10.5t-118 -36.5t-107 -70t-71.5 -105t-39 -120t-14 -111.5t-2.5 -83.5t2 -32.5z" />
    <glyph glyph-name="iconjs" unicode="&#xe639;" 
d="M100 127q36 -81 96 -141.5t141 -95.5t173.5 -35t174 35t141.5 95.5t95.5 142t35.5 174t-35.5 173.5t-95.5 141t-141.5 95.5t-174 35.5t-173.5 -35.5t-141 -95.5t-95.5 -141t-35.5 -173.5t35 -174.5v0zM453 350v175q0 7 6 11.5t15 4.5h74q9 0 15 -4.5t6 -11.5v-176v-112
q0 -7 -6.5 -11.5t-14.5 -4.5l-74 -1q-9 0 -15 5t-6 11v114v0zM453 134q0 10 6 17t15 7h74q9 0 15 -7t6 -17v-39q0 -10 -6 -17t-15 -7h-74q-9 0 -15 7t-6 17v39v0zM453 134z" />
    <glyph glyph-name="bianji" unicode="&#xe77d;" 
d="M250 30l202 86l-124 122zM848 505l-127 131l-370 -365l133 -137zM953 662q-34 37 -73 66q-17 12 -34 12t-26 -6l-8 -6l-66 -66l134 -133q56 57 73 76q8 9 8 23t-4 24zM811 -38q0 -7 -5 -12t-12 -5h-622q-7 0 -12 5t-5 12v617q0 7 5 12t12 5h396l82 87h-563q-8 0 -14 -6
t-6 -14v-786q0 -8 6 -14t14 -6h792q8 0 14 6t6 14v562l-88 -82v-395z" />
    <glyph glyph-name="zuo" unicode="&#xe66e;" 
d="M281 278l417 -416q9 -10 22.5 -10t22.5 9.5t9 23t-9 22.5l-373 374l-11 10q-5 6 -4.5 10.5t2.5 7.5l3 3l11 11l370 370q9 9 9 22.5t-9.5 23t-22.5 9.5t-23 -10l-412 -412v-1h-1l-1 -1q-9 -10 -9 -23t9 -23z" />
    <glyph glyph-name="weibo" unicode="&#xe614;" 
d="M727 309q-15 4 -19.5 10t-1.5 11l4 5l3 6t5.5 16t4.5 23.5t-4 26t-16 25.5q-14 15 -37.5 19.5t-46 0.5t-43.5 -9.5t-34 -11.5l-13 -5q-10 -3 -16.5 -4.5t-10.5 0t-5.5 3.5t-1.5 7.5t0.5 9.5t2.5 12.5t3 14.5q0 15 -2 28t-11 27.5t-23 22t-41 7t-62 -12.5t-72 -36.5
t-64.5 -50.5t-50 -50.5t-34.5 -40l-12 -15.5q-33 -45 -48.5 -89t-16.5 -66t1 -22q5 -49 29 -88t57.5 -63t78.5 -41t86.5 -25t87.5 -11q76 -6 157.5 12t151.5 62t99 105q17 37 17.5 68.5t-11 51.5t-29.5 35.5t-33.5 22.5t-28.5 9zM415 -9q-110 -6 -187.5 42.5t-77.5 122.5
q0 73 77 125.5t188 57.5q112 6 189 -36.5t77 -114.5q0 -75 -78.5 -133.5t-187.5 -63.5zM386 275q-107 -13 -128 -108q-5 -27 -3 -48q0 -2 0.5 -5t2.5 -12t5.5 -16.5t11.5 -17t20 -15.5q67 -33 125.5 -20t94.5 59q14 18 18.5 43.5t-2 51.5t-23 47.5t-48.5 33.5t-74 7z
M348.5 80.5q-20.5 -2.5 -35 8t-14.5 27.5q0 18 13.5 33t33.5 17q23 2 37.5 -9t14.5 -29t-14.5 -31.5t-35 -16zM436 154.5q-7 -5.5 -14.5 -4.5t-11.5 7t-2.5 14.5t8.5 13.5q8 6 16 5t11.5 -7.5t1.5 -14.5t-9 -13.5zM799 369q9 0 16 6t8 15v2q4 34 -1.5 59t-17 39t-26 23.5
t-30 12t-28.5 3t-21 -0.5l-8 -1q-10 0 -17 -7t-7 -17.5t7 -17.5t17 -7q80 18 86 -51q1 -18 -2 -33q0 -10 7 -17.5t17 -7.5zM782 653q-52 12 -121 -1q-1 0 -2 -1l-1 -1h-1q-11 -3 -18.5 -12.5t-7.5 -21.5q0 -15 10.5 -25.5t24.5 -10.5q19 3 32 8q6 0 18.5 1.5t33.5 -4
t42 -13.5t43 -26.5t38 -44.5q27 -60 10 -117q-7 -17 -7 -34q0 -14 10.5 -22.5t25 -8.5t23 5.5t10.5 23.5v0q19 57 14.5 103.5t-20 81t-43.5 59.5t-56 39.5t-58 21.5z" />
    <glyph glyph-name="gouxuan" unicode="&#xe739;" 
d="M512 748q-91 0 -174 -35.5t-143 -95.5t-95.5 -143t-35.5 -174t35.5 -174t95.5 -143t143 -95.5t174 -35.5t174 35.5t143 95.5t95.5 143t35.5 174t-35.5 174t-95.5 143t-143 95.5t-174 35.5zM793 427l-316 -317q-14 -13 -40 -12q-26 -2 -40 12l-139 139q-13 13 -13 31.5
t13 31.5t31.5 13t31.5 -13l116 -116l293 293v0q13 13 31.5 13t31.5 -13t13 -31t-13 -31z" />
    <glyph glyph-name="xiala-copy" unicode="&#xe602;" 
d="M512 124l-279 279l46 45l233 -233l233 233l46 -45z" />
    <glyph glyph-name="chakan-copy" unicode="&#xe645;" 
d="M515.5 696q-69.5 0 -133.5 -19t-110.5 -49t-86.5 -66.5t-66.5 -73t-45 -66.5t-27 -48.5l-8.5 -18.5q3 -8 9 -20t26.5 -47.5t45 -67.5t66 -71.5t87.5 -68t110 -47.5t134 -19q95 0 179.5 35t136.5 85t90.5 100t54.5 85l16 36q-3 7 -8.5 19t-26.5 47.5t-45.5 67.5t-66 71.5
t-87 68t-110 48t-134 19.5zM516 150q-85 0 -145 60t-60 144.5t60 144.5t145 60t144.5 -60t59.5 -144.5t-59.5 -144.5t-144.5 -60zM618 354.5q0 -42.5 -30 -72.5t-72.5 -30t-72 30t-29.5 72.5t29.5 72.5t72 30t72.5 -30t30 -72.5z" />
    <glyph glyph-name="tuichu" unicode="&#xe60b;" 
d="M753 701q42 -30 75 -68t56.5 -82t35.5 -93.5t12 -99.5q0 -88 -33 -164.5t-90 -133t-133.5 -90t-163.5 -33.5t-163.5 33.5t-134 90t-90 133t-32.5 164.5q0 49 11.5 97t33 91.5t53.5 81t72 67.5q20 15 44 11t39 -23.5t11.5 -44t-23.5 -39.5q-59 -43 -90.5 -106t-31.5 -135
q0 -62 23.5 -117t64.5 -96t96 -65t117 -24t116.5 24t95.5 65t65 96t24 117q0 73 -34 138t-95 108q-20 14 -24.5 38.5t9.5 44.5t38.5 24.5t45.5 -10.5v0zM512 355q-25 0 -42.5 17.5t-17.5 41.5v357q0 24 17.5 42t42.5 18t42.5 -18t17.5 -42v-357q0 -24 -17.5 -41.5
t-42.5 -17.5v0zM512 355z" />
    <glyph glyph-name="wenhao" unicode="&#xe66d;" 
d="M511 827q-90 0 -172 -35t-141 -94t-94 -141t-35 -172t35 -172t94 -141t141 -94t172 -35t172 35t141 94t94 141t35 172t-35 172t-94 141t-141 94t-172 35v0v0zM508 76q-27 0 -46 18.5t-19 45t19 45t46 18.5t46 -18.5t19 -45t-19 -45t-46 -18.5v0v0zM683 437
q-19 -30 -81 -82q-33 -27 -40.5 -43.5t-7.5 -58.5h-92q0 6 -0.5 11.5t-0.5 9v4.5q0 45 15 74t60 65q45 37 53 48q14 18 14 39q0 30 -24 51.5t-64 21.5q-39 0 -66 -23q-12 -10 -22.5 -30.5t-13.5 -36.5q-1 -10 -25 -14.5t-46.5 2t-22.5 23.5q2 64 56 111q51 45 135 45
q88 0 140 -45.5t52 -107.5q0 -33 -19 -64v0v0zM683 437z" />
    <glyph glyph-name="shanchu" unicode="&#xe62f;" 
d="M874 746q-98 98 -230 133t-264 0t-230 -133t-133 -230t0 -264t133 -230t230 -133t264 0t230 133t133 230t0 264t-133 230zM191 63q-87 87 -118 204t0 234t118 204t204 117.5t234 0t204 -117.5t117.5 -204t0 -234t-117.5 -204t-204 -117.5t-234 0t-204 117.5zM718 228
l-155 156l155 156q11 10 11 25t-10.5 25.5t-25.5 10.5t-25 -11l-156 -155l-156 155q-10 11 -25 11t-25.5 -10.5t-10.5 -25.5t11 -25l155 -156l-155 -156q-11 -10 -11 -25t10.5 -25.5t25.5 -10.5t25 11l156 155l156 -155q10 -11 25 -11t25.5 10.5t10.5 25.5t-11 25v0z" />
    <glyph glyph-name="zhengpinbaozheng" unicode="&#xe6c2;" 
d="M512 835q-92 0 -175 -36t-143.5 -96.5t-96.5 -143.5t-36 -175t36 -175t96.5 -143.5t143.5 -96.5t175 -36t175 36t143.5 96.5t96.5 143.5t36 175t-36 175t-96.5 143.5t-143.5 96.5t-175 36zM512 -9q-106 0 -196.5 53t-143.5 143.5t-53 196.5t53 196.5t143.5 143.5
t196.5 53t196.5 -53t143.5 -143.5t53 -196.5t-53 -196.5t-143.5 -143.5t-196.5 -53zM512 77q-21 0 -35 19l-246 327q-12 16 -12.5 38.5t10.5 39.5l71 102q10 15 30 25t39 10h286q19 0 39 -10t30 -25l71 -103q11 -16 10.5 -38.5t-12.5 -38.5l-246 -327q-14 -19 -35 -19z
M369 603q-11 0 -23 -6t-17 -14l-71 -102q-5 -7 -4.5 -18t5.5 -19l246 -327q7 -10 14 0l246 327q5 7 5.5 18t-4.5 19l-71 102q-5 8 -17 14t-23 6h-286v0zM791 453h-536q-9 0 -9 9t9 9h536q8 0 8 -9t-8 -9zM498 457q-3 0 -6 2l-162 148q-7 6 -1 12.5t13 0.5l162 -148
q7 -6 0 -12q-2 -3 -6 -3zM526 459q-2 -2 -6 -2t-6 3q-6 6 0 12l162 148q7 6 13 -0.5t-1 -12.5zM520 112q3 -8 -5 -12h-3q-6 0 -8 5l-139 354q-3 8 5 11.5t12 -5.5zM512 100h-3q-8 4 -5 12l135 350q4 8 12 4.5t5 -11.5l-136 -350q-2 -5 -8 -5z" />
    <glyph glyph-name="dingwei" unicode="&#xe668;" 
d="M513 -128q-15 19 -39 50.5t-85.5 120.5t-108.5 167.5t-85.5 167.5t-38.5 144q0 96 48 177.5t130 128.5t179 47t179 -47t129.5 -128.5t47.5 -177.5q0 -55 -36.5 -142t-88.5 -172t-105.5 -163t-89 -125t-36.5 -48v0zM509 672q-63 0 -107.5 -44t-44.5 -106t44.5 -106
t107.5 -44t107.5 44t44.5 106t-44.5 106t-107.5 44v0z" />
    <glyph glyph-name="sheji" unicode="&#xea12;" 
d="M254 141q-1 -19 -7.5 -35.5t-15.5 -27t-18 -17.5t-16 -9.5t-10 -0.5q6 -3 15.5 -7.5t38.5 -11.5t56 -6.5t62 15t62 46.5q27 30 36 61l-110 108v0q-45 -15 -72 -55q-18 -27 -21 -60zM454 431l-167 47l282 153l35 -62q38 34 68 58l-65 115l-543 -294l316 -89zM668 279
l241 -68l-114 201q-62 -68 -127 -133zM366 306q-8 -7 -9 -15.5t5 -13.5l120 -118q5 -5 13.5 -4t16.5 8l28 28l-147 142zM950 732q-68 66 -454 -300l-73 -70l147 -142l71 71q71 72 126.5 132.5t92 105.5t59.5 79.5t32 59t8.5 40t-9.5 24.5z" />
    <glyph glyph-name="ren" unicode="&#xe60f;" 
d="M842 185q-10 9 -21 16q-81 58 -149 84.5t-153 26.5t-152 -26t-147 -83q-15 -9 -27 -20q-47 -41 -70 -108v-132h794v126q-24 73 -75 116zM276 592.5q0 -98.5 70 -168.5t168.5 -70t168.5 70t70 168.5t-70 168.5t-168.5 70t-168.5 -70t-70 -168.5z" />
    <glyph glyph-name="shenhe" unicode="&#xe698;" 
d="M896 661q-133 0 -232.5 27t-151.5 76q-55 -49 -153.5 -76t-230.5 -27q-19 0 -31 12t-12 31t12 31t31 12q247 0 337 89q4 5 4 9v4v4q0 20 12 31.5t31 11.5q17 0 30 -12t13 -31v-4l4 -8q12 -15 31.5 -28.5t57 -30t102 -26t146.5 -9.5q19 0 31 -12t12 -31t-12 -31t-31 -12z
M533 -124q-8 -4 -21 -4t-21 4q-26 9 -69 26q-167 62 -250.5 168t-86.5 276v166q0 19 12 31t31 12t31 -12t12 -31v-166q3 -142 70 -227t211 -140q10 -5 30.5 -11.5t29.5 -10.5q11 5 30 11t30 11q144 55 211 140t70 227v166q0 19 12 31t31 12t31 -12t12 -31v-171
q-3 -169 -86.5 -275t-250.5 -168q-11 -3 -69 -22zM457 602l93 8l17 -51h197v-102h-77v42h-350v-42h-77v102h209q-8 34 -12 43zM299 158v290h175v43h76v-43h175v-290h-72v25h-103v-106h-76v106h-103v-25h-72zM653 388h-103v-47h103v47zM371 341h103v47h-103v-47zM371 239h103
v47h-103v-47zM550 239h103v47h-103v-47z" />
    <glyph glyph-name="kuaisu" unicode="&#xe603;" 
d="M395 513l-331 -327l183 -24l-121 -226l319 321l-153 31zM522 696q-14 0 -24 -10t-10 -24v-271q0 -14 10 -24t24 -10h202q14 0 24 10t10 24t-10 24t-24 10h-168v237q0 14 -10 24t-24 10zM555.5 832q-109.5 0 -202.5 -54.5t-147 -148.5t-54 -204h67q0 92 45 170
t122.5 123.5t169 45.5t169 -45.5t123 -123.5t45.5 -170t-45.5 -170t-123 -123.5t-168.5 -45.5q-84 0 -158 39l-43 -53q93 -54 201 -54q109 0 202.5 54.5t147.5 148.5t54 204t-54 204t-147.5 148.5t-203 54.5z" />
    <glyph glyph-name="yijian-copy-copy-copy-copy" unicode="&#xea16;" 
d="M435 38l-149 187q-1 2 -1.5 4.5t-0.5 9.5t1.5 13t7.5 11.5t15 7.5q24 4 53 -15.5t37 -38.5l4 283q0 1 0.5 3t3 6.5t6.5 8t11.5 6t16.5 2.5q16 -1 24.5 -7.5t10.5 -12.5l1 -6l3 -205q1 2 2 5.5t4.5 11.5t8.5 14.5t13 11.5t18 5q17 0 29 -13t15 -26l3 -13q1 6 4.5 13.5
t16.5 21t28.5 14.5t26.5 -12t14 -27l3 -13q2 6 5 14.5t14 23t23 14t21.5 -8.5t12.5 -16l3 -8v-236q-17 -28 -44 -45l15 14l-3 -2h-277zM436 712v0q-65 0 -110.5 -45.5t-45.5 -110.5q0 -42 21 -78t56 -57l1 50q-38 34 -38 85q0 48 34 82t82 34t82 -34t34 -82q0 -51 -38 -85
v-50q36 21 57 56.5t21 78.5q0 65 -45.5 110.5t-110.5 45.5v0zM512 896q-139 0 -257 -68.5t-186.5 -186.5t-68.5 -257t68.5 -257t186.5 -186.5t257 -68.5t257 68.5t186.5 186.5t68.5 257q0 104 -40.5 199t-109 163.5t-163.5 109t-199 40.5v0zM512 -62q-91 0 -173.5 35.5
t-142 95t-95 142t-35.5 173.5t35.5 173.5t95 142t142 95t173.5 35.5t173.5 -35.5t142 -95t95 -142t35.5 -173.5t-35.5 -173.5t-95 -142t-142 -95t-173.5 -35.5v0z" />
  </font>
</defs>
</svg>
